<svg width="241" height="226" viewBox="0 0 241 226" fill="none" xmlns="http://www.w3.org/2000/svg">
<path d="M79.2798 23.7702C81.4475 22.8478 83.582 21.8362 85.7891 21.0157C95.0697 17.572 104.698 15.7224 114.556 15.1903C125.841 14.5814 136.924 15.9411 147.751 19.2223C159.691 22.8412 170.565 28.5296 180.366 36.2635C188.86 42.9661 196.044 50.8778 201.956 59.9453C202.355 60.5574 202.983 61.1076 202.454 62.0422C202.238 62.4249 202.45 63.0519 202.469 63.6739C203.03 63.5583 203.494 63.4634 204.12 63.3342C205.496 65.9118 206.887 68.5101 208.35 71.2516C206.982 71.4439 205.832 71.6649 204.676 71.7267C204.377 71.7436 203.94 71.3314 203.755 71.0072C201.915 67.7742 200.265 64.4206 198.255 61.3006C196.532 58.6254 194.477 56.1526 192.454 53.6843C182.9 42.0236 171.208 33.1551 157.444 27.0514C146.634 22.26 135.311 19.6366 123.495 19.1259C117.009 18.8453 110.589 19.3631 104.168 20.2586C99.8994 20.854 95.7674 21.9678 91.6987 23.2558C87.6236 24.547 83.5893 26.0636 79.7169 27.8709C75.8147 29.6938 72.0583 31.8714 68.3727 34.1146C63.415 37.1361 58.9567 40.8356 54.7036 44.7923C51.8783 47.4203 49.2885 50.2623 46.8702 53.2519C46.0571 54.2585 45.3253 54.7709 44.0833 54.2201C43.8884 54.1331 43.6498 54.1415 43.3742 54.0978C42.7646 55.0736 43.3672 55.998 43.4194 56.9219C43.4336 57.1853 43.4684 57.5145 43.3356 57.7071C42.135 59.482 40.899 61.2323 39.6051 63.0913C38.7695 62.4102 38.0311 62.8755 37.6696 63.5853C37.4975 63.9206 38.0145 64.6099 38.2971 65.3367C35.1445 70.7061 32.259 76.5459 30.2874 82.779C29.0306 86.7539 28.0564 90.8218 26.9833 94.8533C26.8087 95.5117 26.3907 95.8038 25.9335 96.2547C24.917 97.2602 23.7042 96.8358 22.4423 97.4112C22.82 95.4842 23.1212 93.728 23.5142 91.991C26.491 78.8553 31.9036 66.8188 39.7695 55.8927C45.4398 48.014 52.1373 41.1396 59.8247 35.2313C60.2347 34.9151 60.6869 34.6068 61.1705 34.4404C62.1203 34.1147 63.2149 34.0387 63.3471 32.6884C63.3589 32.5609 63.622 32.4507 63.776 32.3444C68.4985 29.1112 73.4609 26.3018 78.6629 23.9141C78.8646 23.8217 79.0946 23.7848 79.3097 23.7225C79.2685 23.8198 79.2156 23.9142 79.1888 24.0164C79.0938 24.3638 79.008 24.7122 78.9178 25.0612C79.2638 25.1018 79.6817 25.2811 79.9397 25.151C80.3127 24.9613 80.5691 24.5431 80.8758 24.2232C80.6344 24.0169 80.4191 23.7199 80.142 23.633C79.8892 23.5564 79.5665 23.7139 79.2744 23.7641L79.2798 23.7702ZM68.289 33.0967C69.0557 32.2476 69.8352 31.4082 70.553 30.5202C70.596 30.4684 70.1776 29.8316 69.9123 29.7796C69.1655 29.6329 67.3393 30.9375 67.09 31.6819C66.8007 32.5485 67.1718 33.0112 68.289 33.0967ZM86.4316 22.7765C87.7163 23.4517 88.9167 23.3654 89.6186 22.4293C89.8745 22.089 89.9702 21.4212 89.8117 21.0407C89.7028 20.786 88.9999 20.6263 88.5965 20.6807C87.4471 20.8376 86.8141 21.6473 86.4316 22.7765ZM25.0866 90.944C26.3055 91.2487 27.1412 90.891 27.168 89.9605C27.18 89.5904 26.7516 88.9962 26.3937 88.8704C25.8076 88.6644 25.1427 89.7509 25.0866 90.944ZM109.646 18.5163C109.946 18.0349 110.222 17.742 110.289 17.4054C110.313 17.2831 109.763 16.8661 109.598 16.9259C109.272 17.0427 109.032 17.399 108.758 17.655C108.998 17.8889 109.239 18.1228 109.646 18.5163Z" fill="#C7C9D9"/>
<path d="M102.25 210.509C102.736 210.019 103.119 209.707 103.407 209.319C103.61 209.045 103.679 208.674 103.809 208.347C103.409 208.195 102.95 207.838 102.621 207.933C101.998 208.114 101.354 208.459 100.888 208.908C99.9282 209.833 98.9665 209.961 97.6633 209.657C85.0933 206.724 73.5231 201.561 62.9663 194.137C56.7834 189.789 51.1607 184.797 46.1442 179.13C46.0465 179.02 45.9649 178.894 45.9257 178.842C46.9433 178.04 47.9408 177.257 48.8739 176.52C51.6248 179.162 54.419 182.065 57.4392 184.706C71.0036 196.568 86.7014 203.949 104.463 206.907C105.611 207.098 106.776 207.2 107.922 207.403C108.608 207.524 109.422 207.272 109.711 208.433C109.859 209.032 110.69 208.775 111.236 208.351C111.561 208.097 112.031 207.85 112.418 207.876C119.769 208.378 127.078 208.079 134.36 206.957C134.798 206.888 135.311 207.111 135.752 207.29C136.5 207.592 137.105 207.644 137.485 206.758C137.566 206.57 137.804 206.374 138.004 206.323C140.119 205.79 142.243 205.284 144.364 204.782C144.574 204.732 144.851 204.686 145.017 204.779C145.695 205.165 146.022 204.842 146.528 204.368C147.011 203.918 147.793 203.762 148.463 203.547C159.251 200.104 169.074 194.845 177.945 187.81C190.301 178.01 199.61 165.842 205.988 151.418C206.733 149.733 207.388 148.009 208.121 146.215C208.993 146.557 209.707 146.242 209.846 145.33C209.906 144.93 209.395 144.444 209.115 143.95C210.135 139.747 211.196 135.326 212.301 130.917C212.368 130.652 212.753 130.337 213.038 130.278C214.104 130.065 215.188 129.951 216.516 129.764C216.106 131.865 215.723 133.823 215.326 135.856C214.693 135.755 214.156 135.67 213.513 135.566C213.286 136.756 213.334 137.783 214.073 138.752C214.269 139.011 214.353 139.493 214.266 139.814C211.782 148.92 208.032 157.478 203.063 165.492C196.503 176.072 188.243 185.104 178.282 192.561C170.06 198.713 161.138 203.585 151.354 206.71C146.456 208.275 141.403 209.347 136.418 210.631C136.021 210.732 135.603 210.752 135.207 210.808C134.488 209.25 134.251 209.256 132.932 210.395C132.376 210.876 131.624 211.327 130.918 211.406C121.525 212.472 112.154 212.297 102.828 210.658C102.692 210.634 102.56 210.589 102.245 210.505L102.25 210.509ZM195.356 172.444C196.669 172.719 197.421 172.387 197.438 171.415C197.444 171.038 197.005 170.45 196.64 170.319C196.082 170.12 195.383 171.303 195.356 172.444ZM202.37 160.137C201.971 160.968 201.668 161.448 201.534 161.972C201.498 162.119 202.141 162.601 202.166 162.582C202.639 162.16 203.088 161.704 203.467 161.2C203.496 161.161 202.951 160.696 202.37 160.139L202.37 160.137ZM96.3283 206.3C95.4521 206.419 94.6963 206.614 94.6054 207.592C94.597 207.678 95.3399 207.993 95.6749 207.923C96.4863 207.749 96.942 207.271 96.3283 206.3V206.3ZM159.874 200.39L160.045 200.942C160.579 200.924 161.115 200.906 161.65 200.888L161.569 199.229C161.446 199.182 161.321 199.138 161.198 199.091C160.757 199.524 160.315 199.955 159.873 200.387L159.874 200.39Z" fill="#C7C9D9"/>
<path d="M63.8449 155.25L63.2984 151.362C63.7233 151.281 64.1121 151.188 64.5062 151.133C103.898 145.594 143.293 140.062 182.681 134.497C183.808 134.338 184.091 134.665 184.206 135.708C184.487 138.281 184.536 138.288 181.972 138.649C149.148 143.262 116.325 147.87 83.5009 152.481C77.4278 153.334 71.3553 154.192 65.2826 155.048C64.8437 155.11 64.4048 155.172 63.8449 155.25V155.25ZM105.273 149.284C106.647 147.848 106.704 147.309 105.661 146.067C104.151 146.954 103.985 148.149 105.273 149.284ZM83.2678 151.619C83.9648 151.118 84.9633 150.928 84.6319 149.837C84.5722 149.64 83.6323 149.451 83.3434 149.638C82.6296 150.1 82.5518 150.814 83.2678 151.619ZM93.7594 149.042C93.8857 149.063 94.0117 149.082 94.1379 149.103C94.2394 148.768 94.524 148.307 94.3983 148.128C94.2095 147.857 93.7399 147.781 93.389 147.625C93.322 147.717 93.255 147.808 93.1905 147.902C93.381 148.283 93.5689 148.661 93.7594 149.042Z" fill="#C7C9D9"/>
<path d="M175.761 75.7858L55.1214 92.7407L54.5903 88.9621C54.9819 88.8888 55.4043 88.7905 55.832 88.7304C84.4917 84.7071 113.154 80.688 141.814 76.6625C152.509 75.1594 163.207 73.6605 173.895 72.1103C174.992 71.9516 175.39 72.2365 175.429 73.311C175.457 74.0919 175.632 74.8681 175.761 75.7858ZM141.776 78.6721C142.213 78.1256 142.498 77.7652 142.786 77.4068C142.5 77.2272 142.13 76.8376 141.942 76.9121C141.516 77.0796 141.176 77.4751 140.803 77.7769C141.063 78.0173 141.323 78.2576 141.774 78.6747L141.776 78.6721Z" fill="#C7C9D9"/>
<path d="M193.488 154.671L193.72 156.318C194.006 156.34 194.29 156.362 194.63 156.39C194.588 156.533 194.573 156.684 194.505 156.801C191.545 161.983 188.07 166.794 184.108 171.247C180.089 175.763 175.669 179.849 170.789 183.425C170 184.002 169.208 184.576 168.39 185.109C167.717 185.547 167.17 186.226 166.112 185.777C165.738 185.619 164.832 186.129 164.489 186.578C161.762 190.169 157.564 191.333 153.782 193.166C152.726 193.679 151.516 193.86 150.408 194.279C148.812 194.883 147.279 195.673 145.658 196.196C139.513 198.181 133.218 199.466 126.773 199.932C124.135 200.122 121.485 200.266 118.84 200.244C116.099 200.22 113.349 200.073 110.624 199.79C107.936 199.514 105.253 199.092 102.603 198.563C99.9532 198.036 97.3102 197.412 94.7225 196.63C84.0171 193.395 74.2738 188.299 65.5299 181.295C60.247 177.063 55.4912 172.308 51.3594 166.94C50.9766 166.442 50.7227 165.757 50.651 165.134C50.5696 164.424 50.2783 164.09 49.6623 163.801C49.1245 163.55 48.5365 163.184 48.2246 162.704C46.4494 159.967 44.7493 157.181 43.0068 154.385C44.822 153.62 45.0073 153.688 45.8207 155.104C55.9713 172.783 70.5151 185.374 89.5007 192.719C103.831 198.262 118.644 199.656 133.755 197.047C151.227 194.031 166.315 186.232 178.982 173.773C179.664 173.1 180.525 172.597 181.146 171.878C182.583 170.21 184.01 168.522 185.279 166.726C187.885 163.042 190.385 159.283 192.925 155.554C193.069 155.341 193.2 155.119 193.483 154.668L193.488 154.671Z" fill="#C7C9D9"/>
<path d="M136.544 180.43C134.227 179.575 132.166 178.872 130.157 178.047C129.12 177.62 128.317 177.626 127.396 178.366C125.672 179.75 123.843 181.003 121.827 182.48C121.844 181.499 121.841 180.746 121.877 179.995C121.958 178.265 122.097 176.539 122.126 174.81C122.132 174.452 121.843 173.969 121.542 173.745C119.693 172.385 117.802 171.086 115.926 169.762C115.784 169.66 115.659 169.534 115.368 169.282C117.739 168.633 119.922 167.969 122.14 167.456C123.156 167.222 123.637 166.733 123.923 165.748C124.549 163.585 125.303 161.458 126.076 159.098C127.162 160.7 128.157 162.137 129.119 163.592C130.778 166.098 130.77 166.09 133.746 166.013C135.496 165.968 137.248 165.976 139.264 165.955C137.677 167.904 136.283 169.667 134.827 171.38C134.196 172.123 133.915 172.757 134.344 173.777C135.055 175.473 135.552 177.259 136.132 179.01C136.259 179.395 136.36 179.788 136.546 180.428L136.544 180.43ZM132.983 171.405C133.424 170.87 133.724 170.503 134.026 170.135C133.694 169.953 133.301 169.56 133.05 169.639C132.655 169.758 132.358 170.196 132.02 170.5C132.285 170.748 132.549 170.997 132.985 171.407L132.983 171.405Z" fill="#C7C9D9"/>
<path d="M109.874 44.1182C111.308 46.2001 112.657 48.1133 113.956 50.061C114.366 50.6737 114.768 50.9833 115.581 50.9515C117.971 50.8605 120.366 50.9037 123.05 50.8926C121.606 52.6949 120.423 54.385 119.016 55.8596C117.953 56.9723 117.8 57.9479 118.38 59.3423C119.156 61.2079 119.697 63.1728 120.426 65.3562C118.691 64.7282 117.106 64.3492 115.718 63.6039C113.443 62.3859 111.582 62.5651 109.707 64.3961C108.59 65.4865 107.175 66.2712 105.891 67.1907C105.866 67.208 105.819 67.1963 105.624 67.2099C105.705 65.2674 105.627 63.3129 105.908 61.4131C106.17 59.6373 105.627 58.5718 104.096 57.7024C102.597 56.8514 101.239 55.7517 99.8248 54.7539C99.6575 54.6355 99.5225 54.4714 99.2353 54.1983C101.262 53.6389 103.107 53.0021 105.006 52.6391C106.698 52.3166 107.661 51.591 108.041 49.8101C108.447 47.911 109.217 46.0891 109.869 44.1166L109.874 44.1182ZM113.931 56.1029C114.603 55.7842 115.256 55.4751 115.684 55.2708C116.051 55.7043 116.331 56.2689 116.552 56.2471C116.986 56.2043 117.485 55.9169 117.78 55.578C118.02 55.3017 118.068 54.8007 118.069 54.4002C118.07 54.0842 117.927 53.5529 117.741 53.5012C117.459 53.4242 116.901 53.5849 116.787 53.8092C116.431 54.5113 115.934 54.437 115.302 54.3909C114.15 54.3033 113.755 54.8233 113.928 56.1032L113.931 56.1029Z" fill="#C7C9D9"/>
<path d="M195.818 72.9304C193.915 73.3946 193.926 73.3886 193.05 71.8528C192.51 70.9058 191.955 69.9633 191.372 69.0432C190.826 68.1795 190.109 67.3695 191.264 66.0334C189.228 66.4637 188.837 65.0611 188.09 64.0999C186.381 61.9009 184.662 59.7102 183.075 57.6795C183.144 57.0542 183.202 56.5381 183.259 56.0198C182.745 55.9845 182.231 55.9515 181.521 55.9026C179.434 53.9398 177.194 51.7103 174.825 49.6292C167.371 43.0757 158.998 37.9944 149.707 34.5409C145.703 33.0535 141.525 32.0367 137.417 30.8339C136.712 30.6286 135.98 30.5713 136.201 29.5151C136.234 29.3595 135.945 29.1348 135.803 28.9418C135.625 29.0997 135.389 29.2266 135.284 29.4244C135.165 29.6448 135.163 29.9287 135.078 30.3435C133.783 29.8848 132.243 30.3872 131.409 29.278C130.553 29.3434 129.864 29.4769 129.186 29.4348C125.75 29.2245 122.316 28.9702 118.896 28.7302C119.015 28.1941 119.149 27.5939 119.287 26.9775C150.341 26.3129 181.396 44.8113 195.818 72.9304V72.9304Z" fill="#C7C9D9"/>
<path d="M139.218 42.9228C140.53 44.8641 141.69 46.5179 142.776 48.2186C143.168 48.8316 143.602 49.0727 144.323 49.0537C146.407 48.9988 148.494 49.0121 150.807 48.9982C149.689 50.3978 148.756 51.7576 147.625 52.9211C146.448 54.1344 146.065 55.2569 146.851 56.8853C147.546 58.323 147.893 59.9285 148.48 61.7155C146.674 61.0678 145.019 60.6025 143.482 59.8849C142.052 59.2187 140.96 59.3264 139.759 60.383C138.499 61.4936 137.052 62.3926 135.471 63.5414C135.51 62.2752 135.377 61.1841 135.605 60.175C136.268 57.24 135.369 55.211 132.584 53.9481C131.618 53.5096 130.812 52.7145 129.717 51.9257C131.839 51.3482 133.728 50.8012 135.636 50.3341C136.55 50.1096 137.111 49.7332 137.372 48.731C137.854 46.8785 138.523 45.0775 139.221 42.9225L139.218 42.9228ZM141.091 56.7018C140.089 57.1789 139.496 58.1272 139.938 58.6073C140.135 58.8222 140.794 58.9287 140.991 58.7705C141.742 58.1685 141.546 57.4249 141.091 56.7018V56.7018Z" fill="#C7C9D9"/>
<path d="M108.918 172.259C107.478 174.058 106.258 175.681 104.924 177.2C104.351 177.85 104.355 178.403 104.613 179.129C105.271 181.004 105.888 182.894 106.599 185.009C104.91 184.398 103.349 183.995 101.944 183.282C100.248 182.42 98.9392 182.599 97.5403 183.889C96.3698 184.969 94.9626 185.794 93.5236 186.831C93.6285 184.718 93.6996 182.77 93.8423 180.828C93.8662 180.511 94.2889 180.237 94.3657 179.906C94.4832 179.393 94.4612 178.846 94.4984 178.315C94.0794 178.34 93.6601 178.378 93.2408 178.384C92.9149 178.389 92.5105 178.469 92.2741 178.314C90.8349 177.368 89.4351 176.361 87.8 175.222C89.4652 174.755 90.8959 174.195 92.3793 173.977C94.4133 173.68 95.5205 172.703 95.9062 170.653C96.1677 169.264 96.7645 167.938 97.2114 166.585C97.2208 166.554 97.2611 166.532 97.4409 166.349C98.3067 168.074 99.9227 169.238 100.235 171.315C100.299 171.734 101.487 172.228 102.179 172.263C104.348 172.371 106.527 172.277 108.92 172.259L108.918 172.259Z" fill="#C7C9D9"/>
<path d="M145.876 167.017C148.195 166.378 150.228 165.861 152.227 165.234C152.671 165.096 153.146 164.643 153.342 164.213C153.745 163.328 153.887 162.324 154.288 161.439C154.687 160.559 155.274 159.765 155.888 158.755C157.038 160.442 158.009 161.953 159.085 163.385C159.36 163.753 159.958 164.07 160.416 164.083C162.514 164.141 164.616 164.083 167.001 164.064C165.464 165.976 164.095 167.687 162.702 169.382C162.605 169.501 162.326 169.531 162.144 169.506C160.773 169.323 160.304 169.918 160.791 171.316C161.362 171.06 161.929 170.801 162.571 170.512C163.266 172.6 163.932 174.59 164.671 176.807C163.013 176.209 161.45 175.813 160.051 175.099C158.351 174.233 157.026 174.426 155.624 175.692C154.463 176.74 153.099 177.564 151.827 178.488C151.712 178.45 151.594 178.411 151.479 178.372C151.707 177.052 151.944 175.735 152.153 174.411C152.193 174.156 152.145 173.881 152.097 173.622C152.047 173.343 151.839 173.05 151.891 172.805C152.145 171.625 151.638 170.953 150.652 170.343C149.092 169.379 147.634 168.25 145.878 167.014L145.876 167.017Z" fill="#C7C9D9"/>
<path d="M45.0802 73.1424C44.9006 72.5956 44.7439 72.1142 44.5846 71.6309C44.3292 72.0558 44.1066 72.5035 43.8078 72.8956C43.5686 73.2084 43.2371 73.4494 42.7236 73.5651C43.2417 72.6045 43.7425 71.6349 44.2807 70.6874C48.5181 63.239 53.7434 56.5647 59.9363 50.649C60.4233 50.1824 60.8518 49.9003 61.5874 50.0646C62.455 50.2584 63.3314 50.1902 63.8786 49.0951C63.5224 48.8522 63.1437 48.5943 62.5956 48.2205C78.4412 34.5873 96.7843 27.6116 117.633 27.0063C116.791 27.9734 116.154 29.0125 114.545 29.0969C101.318 29.7751 88.9646 33.5042 77.473 40.0638C69.1016 44.8419 61.7881 50.9242 55.4767 58.2225C55.1212 58.634 54.5566 58.8735 54.0664 59.1552C53.4324 59.5189 52.8002 59.8297 53.0909 60.7773C53.1535 60.979 52.9524 61.3024 52.8026 61.5203C50.956 64.2235 49.233 67.026 47.1805 69.5637C46.2681 70.6919 46.1599 72.1806 45.0853 73.1462L45.0802 73.1424Z" fill="#C7C9D9"/>
<path d="M81.1612 51.1302C82.4421 53.0301 83.5944 54.6163 84.6017 56.2915C85.0932 57.1079 85.6852 57.2741 86.5398 57.2455C88.5177 57.1827 90.4967 57.1928 92.7521 57.171C91.2455 59.0439 89.8922 60.7237 88.5431 62.4006C86.9375 61.3266 86.403 61.3742 85.0489 62.8207C84.3618 63.5534 83.764 64.3696 83.1151 65.1632C85.0816 66.0264 86.5084 65.6497 88.3083 63.7355C88.6113 64.5922 88.8874 65.3702 89.1215 66.0283C88.8475 66.4512 88.6448 66.7635 88.442 67.0757C88.7232 67.1918 89.015 67.2857 89.2799 67.4316C89.4508 67.5265 89.651 67.6677 89.7156 67.8348C89.9428 68.4276 90.1178 69.0391 90.4007 69.9145C88.6787 69.2962 87.083 68.8935 85.6542 68.1676C84.0089 67.3303 82.7585 67.5976 81.4228 68.7692C80.2173 69.8264 78.8378 70.6861 77.3645 71.7558C77.4625 69.4471 77.587 67.3268 77.6088 65.2072C77.6128 64.781 77.3354 64.2045 76.9979 63.9476C75.5018 62.8079 73.9346 61.7628 72.3959 60.6772C72.1956 60.536 72.0143 60.367 71.6991 60.1069C73.7685 59.5415 75.6662 58.9728 77.5911 58.5169C78.4972 58.3026 78.9886 57.8995 79.2531 56.97C79.7935 55.0635 80.4768 53.1988 81.1596 51.135L81.1612 51.1302Z" fill="#C7C9D9"/>
<path d="M47.1475 174.293C46.161 175.171 45.2191 176.008 44.2099 176.903C38.8973 170.575 34.3962 163.636 30.7041 155.888C32.0365 155.7 33.2352 155.505 34.4405 155.388C34.6455 155.368 34.9824 155.636 35.0907 155.855C38.3674 162.499 42.4931 168.587 47.1519 174.325C47.1739 174.351 47.1754 174.395 47.1427 174.292L47.1475 174.293Z" fill="#C7C9D9"/>
<path d="M204.343 131.507C203.307 135.051 202.373 138.335 201.377 141.598C200.959 142.963 200.441 144.299 199.891 145.619C199.688 146.107 199.254 146.493 198.952 146.943C198.772 147.209 198.496 147.522 198.518 147.791C198.647 149.357 198.01 150.416 196.746 151.335C195.698 152.098 194.868 153.16 193.713 154.317C194.711 152.241 195.599 150.453 196.439 148.642C198.787 143.575 200.603 138.316 201.784 132.86C202.098 131.411 203.069 131.716 204.345 131.507L204.343 131.507Z" fill="#C7C9D9"/>
<path d="M42.0089 74.9469C42.779 76.5593 43.3391 75.2153 44.2067 74.9378C43.7542 75.8777 43.3685 76.6755 42.9883 77.4635C42.562 77.4524 42.1703 77.4434 41.4619 77.424C42.7588 78.8686 41.8223 79.9887 41.3668 81.167C40.8509 82.5003 40.5431 83.9667 39.7806 85.1379C38.9318 86.4424 38.9851 87.9108 38.5088 89.2659C38.0135 90.6809 37.6917 92.1608 37.3306 93.6211C36.8811 95.4438 36.8996 95.4458 34.843 95.5495C36.3374 88.3904 38.722 81.6028 42.0064 74.945L42.0089 74.9469Z" fill="#C7C9D9"/>
<path d="M40.4404 116.446L39.6854 111.074L62.8168 107.823L63.5717 113.195L55.2733 114.361L58.3646 136.357L51.8434 137.273L48.7522 115.278L40.4404 116.446ZM72.3957 134.385L65.2866 135.384L70.6742 106.719L79.4804 105.481L92.5605 131.551L85.4514 132.55L76.1466 112.981L75.9328 113.011L72.3957 134.385ZM69.9332 123.747L84.7929 121.659L85.499 126.684L70.6394 128.772L69.9332 123.747ZM106.762 110.014C106.535 109.046 106.031 108.34 105.251 107.896C104.479 107.441 103.446 107.305 102.155 107.486C101.299 107.606 100.602 107.818 100.064 108.121C99.5247 108.424 99.1403 108.791 98.9103 109.223C98.679 109.646 98.594 110.108 98.6552 110.608C98.695 111.02 98.8259 111.37 99.0479 111.657C99.2788 111.942 99.5849 112.181 99.9661 112.372C100.355 112.554 100.811 112.699 101.335 112.807C101.859 112.915 102.442 112.992 103.085 113.038L105.512 113.242C106.907 113.346 108.156 113.57 109.258 113.915C110.37 114.258 111.325 114.719 112.124 115.297C112.931 115.874 113.58 116.578 114.069 117.408C114.558 118.239 114.884 119.201 115.047 120.296C115.281 122.026 115.053 123.57 114.363 124.93C113.673 126.29 112.564 127.413 111.035 128.3C109.515 129.186 107.615 129.789 105.334 130.11C103.045 130.432 101.001 130.369 99.203 129.922C97.405 129.475 95.9356 128.619 94.7947 127.353C93.6538 126.087 92.9198 124.387 92.5926 122.253L98.9266 121.362C99.104 122.237 99.4434 122.939 99.9447 123.468C100.446 123.997 101.083 124.362 101.856 124.562C102.638 124.761 103.515 124.792 104.486 124.656C105.377 124.53 106.117 124.304 106.707 123.976C107.306 123.646 107.744 123.244 108.023 122.769C108.301 122.293 108.406 121.779 108.337 121.225C108.256 120.71 108.033 120.292 107.67 119.97C107.306 119.64 106.78 119.387 106.092 119.211C105.412 119.025 104.556 118.886 103.526 118.795L100.572 118.528C98.1263 118.318 96.1366 117.703 94.6033 116.683C93.0687 115.654 92.1601 114.101 91.8772 112.024C91.6304 110.333 91.8763 108.785 92.6149 107.383C93.3534 105.98 94.4833 104.808 96.0045 103.867C97.5257 102.927 99.3242 102.311 101.4 102.019C103.52 101.721 105.411 101.823 107.071 102.326C108.739 102.818 110.096 103.649 111.142 104.82C112.187 105.99 112.839 107.425 113.096 109.124L106.762 110.014ZM124.578 127.051L117.469 128.05L122.857 99.3849L131.663 98.1473L144.743 124.217L137.634 125.216L128.329 105.647L128.115 105.677L124.578 127.051ZM122.116 116.414L136.975 114.325L137.682 119.35L122.822 121.438L122.116 116.414ZM157.805 122.381L147.689 123.803L143.843 96.4354L153.946 95.0156C156.734 94.6238 159.212 94.8342 161.379 95.647C163.554 96.4497 165.334 97.7985 166.717 99.6935C168.1 101.58 168.991 103.944 169.39 106.785C169.791 109.636 169.587 112.163 168.78 114.366C167.981 116.568 166.647 118.359 164.779 119.739C162.909 121.11 160.585 121.991 157.805 122.381ZM153.512 117.234L156.759 116.778C158.291 116.562 159.551 116.122 160.539 115.456C161.534 114.78 162.22 113.816 162.599 112.564C162.984 111.301 163.039 109.686 162.762 107.717C162.486 105.748 161.989 104.219 161.273 103.13C160.555 102.031 159.621 101.299 158.47 100.934C157.327 100.559 155.972 100.481 154.404 100.702L151.25 101.145L153.512 117.234ZM199.085 102.626C199.508 105.637 199.288 108.271 198.424 110.527C197.56 112.783 196.215 114.594 194.39 115.959C192.574 117.322 190.441 118.176 187.991 118.52C185.533 118.866 183.242 118.629 181.119 117.81C178.996 116.991 177.209 115.621 175.758 113.699C174.315 111.767 173.382 109.3 172.96 106.297C172.537 103.286 172.753 100.653 173.608 98.3981C174.472 96.1418 175.812 94.3318 177.628 92.9683C179.444 91.6047 181.581 90.7502 184.04 90.4046C186.49 90.0603 188.776 90.2932 190.897 91.1034C193.028 91.9123 194.819 93.2821 196.271 95.2129C197.724 97.1437 198.662 99.6146 199.085 102.626ZM192.323 103.576C192.073 101.794 191.607 100.324 190.927 99.1664C190.255 98.0071 189.402 97.1776 188.369 96.6778C187.345 96.1767 186.174 96.0188 184.855 96.2041C183.546 96.3882 182.463 96.8628 181.608 97.6281C180.752 98.3933 180.157 99.4263 179.822 100.727C179.496 102.027 179.458 103.567 179.708 105.349C179.959 107.131 180.42 108.601 181.091 109.76C181.772 110.918 182.629 111.747 183.662 112.247C184.695 112.747 185.867 112.905 187.176 112.721C188.495 112.535 189.577 112.061 190.424 111.297C191.279 110.532 191.87 109.499 192.196 108.2C192.531 106.899 192.573 105.358 192.323 103.576Z" fill="#C7C9D9"/>
</svg>
